<svg clip-rule="evenodd" fill-rule="evenodd" stroke-linejoin="round" stroke-miterlimit="2" viewBox="0 0 16 16" xmlns="http://www.w3.org/2000/svg"><g fill-rule="nonzero"><path d="m13.787 4.925c-.215-1.051-.43-.35-.808.404-.327.654-1.362 1.623-1.825 2.193-.241-.247-.52-.562-.87-.9-.781-.754-1.817-.75-2.209-.162-.01.016-.019.032-.028.048-.009-.016-.017-.032-.028-.048-.392-.588-1.428-.592-2.209.162-.356.344-.639.664-.882.912-.458-.568-1.506-1.546-1.836-2.205-.377-.754-.592-1.455-.807-.404-.171.833-.243 2.855 0 3.61.107-.432.296-.674.296-.674s-.449 2.196.242 3.556c.081-.485.243-.916.243-.916s-.135 2.317.996 3.313c-.047-.377-.053-.862-.053-.862s1.481 1.832 2.909 2.236c0 0 .377.216 1.037.216.029 0 .055-.005.081-.01.026.005.051.01.081.01.66 0 1.037-.216 1.037-.216 1.428-.404 2.909-2.236 2.909-2.236s-.006.485-.054.863c1.132-.997.997-3.314.997-3.314s.162.431.243.916c.691-1.36.242-3.556.242-3.556s.189.243.296.674c.243-.755.171-2.777 0-3.61zm-4.983 4.865c-.162-.285-.242-.744-.539-.717-.077.007-.381.007-.458 0-.296-.027-.377.432-.539.717s-.781.011-1.131-.313c-.253-.233-.533-.767-.781-1.234.241.012.493.013.737-.005.765-.057 1.668-.51 1.954-1.055.287.545 1.19.998 1.954 1.055.237.018.481.017.714.007-.247.466-.527 1-.779 1.232-.351.324-.97.598-1.132.313z"/><path d="m11.521.559c-.599.219-2.33 1.781-2.33 1.781l.118.142s1.368-1.215 2.532-1.53c.508-.138.971.25.971.25l.038-.058s-.73-.803-1.329-.585z"/><path d="m3.27 2.49.056.042s.302-.524.826-.569c1.202-.103 2.903.569 2.903.569l.063-.174s-2.162-.873-2.799-.873c-.638 0-1.049 1.005-1.049 1.005z"/></g></svg>